<?xml version="1.0" standalone="no"?>
<!DOCTYPE svg PUBLIC "-//W3C//DTD SVG 20010904//EN"
 "http://www.w3.org/TR/2001/REC-SVG-20010904/DTD/svg10.dtd">
<svg version="1.0" xmlns="http://www.w3.org/2000/svg"
 width="260.000000pt" height="260.000000pt" viewBox="0 0 260.000000 260.000000"
 preserveAspectRatio="xMidYMid meet">
<metadata>
Created by potrace 1.11, written by Peter Selinger 2001-2013
</metadata>
<g transform="translate(0.000000,260.000000) scale(0.100000,-0.100000)"
fill="#000000" stroke="none">
<path d="M1090 2547 c-3 -3 -29 -8 -58 -11 -109 -13 -221 -66 -304 -144 -144
-135 -206 -351 -211 -739 l-2 -113 -112 0 -113 0 0 -25 0 -25 113 0 113 0 0
-677 -1 -678 -110 0 c-110 0 -110 0 -110 -24 l0 -25 452 0 453 -1 0 25 0 26
-122 -2 c-68 0 -127 1 -133 3 -7 2 -10 233 -9 671 1 367 2 670 3 675 0 4 64 7
141 7 l140 0 0 25 0 24 -142 3 -143 3 1 310 c0 452 8 523 65 593 43 52 130 67
208 36 69 -27 78 -69 50 -223 -26 -149 35 -226 178 -223 83 1 159 55 183 128
14 41 7 129 -14 178 -36 86 -140 161 -263 190 -55 12 -243 22 -253 13z"/>
<path d="M1625 1564 c-249 -36 -405 -161 -418 -334 -10 -146 65 -261 215 -329
60 -27 171 -64 231 -76 15 -3 37 -7 50 -10 12 -3 32 -7 44 -9 192 -39 344
-105 420 -183 59 -60 78 -108 75 -190 -3 -109 -74 -191 -212 -246 -99 -39
-164 -51 -285 -50 -283 2 -477 111 -510 286 -7 35 -9 37 -45 37 l-38 0 5 -37
c19 -152 157 -280 362 -335 102 -28 342 -30 446 -5 152 38 277 124 326 225 32
65 33 206 2 273 -55 121 -200 209 -441 266 -329 79 -416 110 -490 177 -49 45
-73 92 -79 163 -18 187 187 319 482 309 258 -9 446 -126 471 -293 3 -24 10
-43 15 -44 5 -1 18 -1 29 -1 11 0 24 0 30 1 16 2 0 82 -30 147 -88 193 -363
301 -655 258z"/>
</g>
</svg>
